<svg width="153" height="153" viewBox="0 0 153 153" fill="none" xmlns="http://www.w3.org/2000/svg">
<g clip-path="url(#clip0_181_114)">
<mask id="path-1-inside-1_181_114" fill="white">
<path d="M69.5176 23.5861L75.9971 23.6233C80.257 23.6475 84.4629 24.5785 88.335 26.3547L96.8096 30.2424L91.5713 37.5608L84.7275 35.1594C81.452 34.01 78.0015 33.4374 74.5303 33.468L71.6504 33.4924L75.8057 52.7981L75.4395 52.7551C63.8591 51.4117 52.7386 57.7089 47.9326 68.3303L35.1768 53.344L33.9736 55.0822C31.9976 57.9364 30.5316 61.1116 29.6416 64.467L27.7822 71.4777L18.7842 71.6984L20.3311 62.5041C21.0378 58.3031 22.6319 54.3002 25.0059 50.7629L28.5205 45.5246L28.5 45.5002L28.8066 45.0979L29.5947 43.925L29.6611 43.9807L32.6396 40.0871C33.8336 38.5258 35.454 37.3621 37.2881 36.7219C40.8004 38.7475 45.2545 38.9443 49.0684 36.8508C52.5179 34.9571 54.6677 31.6156 55.1777 27.9973L55.9062 27.2307C57.5782 25.4708 59.8335 24.3792 62.251 24.1594L67.7705 23.6565L67.7627 23.5764L68.6084 23.5803L69.5 23.5002L69.5176 23.5861ZM37.752 16.2336C43.1379 13.2771 49.9009 15.2461 52.8574 20.632C55.8139 26.018 53.8448 32.7809 48.459 35.7375C43.073 38.694 36.31 36.7241 33.3535 31.3381C30.3973 25.9523 32.3663 19.1902 37.752 16.2336Z"/>
</mask>
<path d="M69.5176 23.5861L75.9971 23.6233C80.257 23.6475 84.4629 24.5785 88.335 26.3547L96.8096 30.2424L91.5713 37.5608L84.7275 35.1594C81.452 34.01 78.0015 33.4374 74.5303 33.468L71.6504 33.4924L75.8057 52.7981L75.4395 52.7551C63.8591 51.4117 52.7386 57.7089 47.9326 68.3303L35.1768 53.344L33.9736 55.0822C31.9976 57.9364 30.5316 61.1116 29.6416 64.467L27.7822 71.4777L18.7842 71.6984L20.3311 62.5041C21.0378 58.3031 22.6319 54.3002 25.0059 50.7629L28.5205 45.5246L28.5 45.5002L28.8066 45.0979L29.5947 43.925L29.6611 43.9807L32.6396 40.0871C33.8336 38.5258 35.454 37.3621 37.2881 36.7219C40.8004 38.7475 45.2545 38.9443 49.0684 36.8508C52.5179 34.9571 54.6677 31.6156 55.1777 27.9973L55.9062 27.2307C57.5782 25.4708 59.8335 24.3792 62.251 24.1594L67.7705 23.6565L67.7627 23.5764L68.6084 23.5803L69.5 23.5002L69.5176 23.5861ZM37.752 16.2336C43.1379 13.2771 49.9009 15.2461 52.8574 20.632C55.8139 26.018 53.8448 32.7809 48.459 35.7375C43.073 38.694 36.31 36.7241 33.3535 31.3381C30.3973 25.9523 32.3663 19.1902 37.752 16.2336Z" fill="#00C2EF"/>
<path fill-rule="evenodd" clip-rule="evenodd" d="M69.5176 23.5861L69.2237 23.6463L69.2724 23.8847L69.5159 23.8861L69.5176 23.5861ZM75.9971 23.6233L75.9954 23.9233H75.9954L75.9971 23.6233ZM88.335 26.3547L88.4601 26.082L88.46 26.082L88.335 26.3547ZM96.8096 30.2424L97.0535 30.417L97.2652 30.1213L96.9347 29.9697L96.8096 30.2424ZM91.5713 37.5608L91.472 37.8438L91.6843 37.9183L91.8152 37.7354L91.5713 37.5608ZM84.7275 35.1594L84.6282 35.4425H84.6282L84.7275 35.1594ZM74.5303 33.468L74.5328 33.768H74.5329L74.5303 33.468ZM71.6504 33.4924L71.6478 33.1924L71.2796 33.1955L71.3571 33.5555L71.6504 33.4924ZM75.8057 52.7981L75.7707 53.096L76.1872 53.1449L76.0989 52.7349L75.8057 52.7981ZM75.4395 52.7551L75.4744 52.4571L75.474 52.4571L75.4395 52.7551ZM47.9326 68.3303L47.7042 68.5247L48.0109 68.8851L48.2059 68.454L47.9326 68.3303ZM35.1768 53.344L35.4052 53.1495L35.1522 52.8523L34.9301 53.1732L35.1768 53.344ZM33.9736 55.0822L34.2203 55.253L34.2203 55.253L33.9736 55.0822ZM29.6416 64.467L29.3516 64.3901L29.3516 64.3901L29.6416 64.467ZM27.7822 71.4777L27.7896 71.7777L28.0145 71.7721L28.0722 71.5547L27.7822 71.4777ZM18.7842 71.6985L18.4883 71.6487L18.428 72.0073L18.7915 71.9984L18.7842 71.6985ZM20.3311 62.5041L20.6269 62.5539L20.6269 62.5539L20.3311 62.5041ZM25.0059 50.7629L25.255 50.9301L25.255 50.9301L25.0059 50.7629ZM28.5205 45.5246L28.7696 45.6918L28.8953 45.5044L28.7502 45.3317L28.5205 45.5246ZM28.5 45.5002L28.2614 45.3184L28.1159 45.5093L28.2703 45.6932L28.5 45.5002ZM28.8066 45.0979L29.0452 45.2797L29.0507 45.2726L29.0556 45.2652L28.8066 45.0979ZM29.5947 43.925L29.7874 43.6951L29.5318 43.4808L29.3457 43.7577L29.5947 43.925ZM29.6611 43.9807L29.4684 44.2106L29.7088 44.4121L29.8994 44.163L29.6611 43.9807ZM32.6396 40.0871L32.8779 40.2694L32.878 40.2694L32.6396 40.0871ZM37.2881 36.7219L37.438 36.462L37.3189 36.3934L37.1892 36.4386L37.2881 36.7219ZM49.0684 36.8508L49.2127 37.1138L49.2127 37.1138L49.0684 36.8508ZM55.1777 27.9973L54.9603 27.7906L54.8941 27.8603L54.8807 27.9554L55.1777 27.9973ZM55.9062 27.2307L56.1237 27.4373L56.1237 27.4373L55.9062 27.2307ZM62.251 24.1594L62.2781 24.4582L62.2782 24.4582L62.251 24.1594ZM67.7705 23.6565L67.7977 23.9552L68.0984 23.9278L68.0691 23.6273L67.7705 23.6565ZM67.7627 23.5764L67.7641 23.2764L67.4319 23.2748L67.4641 23.6055L67.7627 23.5764ZM68.6084 23.5803L68.607 23.8803L68.6212 23.8803L68.6352 23.8791L68.6084 23.5803ZM69.5 23.5002L69.7939 23.4401L69.7402 23.1774L69.4732 23.2014L69.5 23.5002ZM37.752 16.2336L37.6076 15.9706L37.6076 15.9706L37.752 16.2336ZM52.8574 20.632L53.1204 20.4877L53.1204 20.4877L52.8574 20.632ZM48.459 35.7375L48.6033 36.0005H48.6033L48.459 35.7375ZM33.3535 31.3381L33.0905 31.4825L33.0905 31.4825L33.3535 31.3381ZM69.5176 23.5861L69.5159 23.8861L75.9954 23.9233L75.9971 23.6233L75.9988 23.3233L69.5193 23.2862L69.5176 23.5861ZM75.9971 23.6233L75.9954 23.9233C80.2127 23.9472 84.3766 24.869 88.2099 26.6274L88.335 26.3547L88.46 26.082C84.5493 24.2881 80.3013 23.3477 75.9988 23.3233L75.9971 23.6233ZM88.335 26.3547L88.2099 26.6274L96.6845 30.5151L96.8096 30.2424L96.9347 29.9697L88.4601 26.082L88.335 26.3547ZM96.8096 30.2424L96.5656 30.0678L91.3273 37.3861L91.5713 37.5608L91.8152 37.7354L97.0535 30.417L96.8096 30.2424ZM91.5713 37.5608L91.6706 37.2777L84.8269 34.8763L84.7275 35.1594L84.6282 35.4425L91.472 37.8438L91.5713 37.5608ZM84.7275 35.1594L84.8269 34.8763C81.5186 33.7154 78.0336 33.1372 74.5276 33.168L74.5303 33.468L74.5329 33.768C77.9694 33.7377 81.3854 34.3046 84.6282 35.4425L84.7275 35.1594ZM74.5303 33.468L74.5277 33.168L71.6478 33.1924L71.6504 33.4924L71.6529 33.7924L74.5328 33.768L74.5303 33.468ZM71.6504 33.4924L71.3571 33.5555L75.5124 52.8612L75.8057 52.7981L76.0989 52.7349L71.9437 33.4293L71.6504 33.4924ZM75.8057 52.7981L75.8406 52.5001L75.4744 52.4571L75.4395 52.7551L75.4045 53.053L75.7707 53.096L75.8057 52.7981ZM75.4395 52.7551L75.474 52.4571C63.764 51.0987 52.519 57.4664 47.6593 68.2066L47.9326 68.3303L48.2059 68.454C52.9581 57.9515 63.9541 51.7248 75.4049 53.0531L75.4395 52.7551ZM47.9326 68.3303L48.1611 68.1358L35.4052 53.1495L35.1768 53.344L34.9483 53.5384L47.7042 68.5247L47.9326 68.3303ZM35.1768 53.344L34.9301 53.1732L33.727 54.9115L33.9736 55.0822L34.2203 55.253L35.4234 53.5147L35.1768 53.344ZM33.9736 55.0822L33.727 54.9115C31.7312 57.7941 30.2506 61.0012 29.3516 64.3901L29.6416 64.467L29.9316 64.5439C30.8127 61.2221 32.264 58.0786 34.2203 55.253L33.9736 55.0822ZM29.6416 64.467L29.3516 64.3901L27.4923 71.4008L27.7822 71.4777L28.0722 71.5547L29.9316 64.5439L29.6416 64.467ZM27.7822 71.4777L27.7749 71.1778L18.7768 71.3985L18.7842 71.6985L18.7915 71.9984L27.7896 71.7777L27.7822 71.4777ZM18.7842 71.6985L19.08 71.7482L20.6269 62.5539L20.3311 62.5041L20.0352 62.4543L18.4883 71.6487L18.7842 71.6985ZM20.3311 62.5041L20.6269 62.5539C21.3266 58.3949 22.9047 54.432 25.255 50.9301L25.0059 50.7629L24.7568 50.5957C22.3591 54.1684 20.749 58.2113 20.0352 62.4543L20.3311 62.5041ZM25.0059 50.7629L25.255 50.9301L28.7696 45.6918L28.5205 45.5246L28.2714 45.3575L24.7567 50.5958L25.0059 50.7629ZM28.5205 45.5246L28.7502 45.3317L28.7297 45.3073L28.5 45.5002L28.2703 45.6932L28.2908 45.7176L28.5205 45.5246ZM28.5 45.5002L28.7386 45.6821L29.0452 45.2797L28.8066 45.0979L28.568 44.916L28.2614 45.3184L28.5 45.5002ZM28.8066 45.0979L29.0556 45.2652L29.8437 44.0923L29.5947 43.925L29.3457 43.7577L28.5576 44.9305L28.8066 45.0979ZM29.5947 43.925L29.402 44.1549L29.4684 44.2106L29.6611 43.9807L29.8539 43.7508L29.7874 43.6951L29.5947 43.925ZM29.6611 43.9807L29.8994 44.163L32.8779 40.2694L32.6396 40.0871L32.4014 39.9048L29.4229 43.7984L29.6611 43.9807ZM32.6396 40.0871L32.878 40.2694C34.036 38.755 35.6077 37.6262 37.387 37.0051L37.2881 36.7219L37.1892 36.4386C35.3003 37.098 33.6312 38.2966 32.4013 39.9049L32.6396 40.0871ZM37.2881 36.7219L37.1382 36.9818C40.7375 39.0575 45.3031 39.2598 49.2127 37.1138L49.0684 36.8508L48.924 36.5878C45.2058 38.6288 40.8632 38.4375 37.438 36.462L37.2881 36.7219ZM49.0684 36.8508L49.2127 37.1138C52.7487 35.1726 54.9521 31.7471 55.4748 28.0392L55.1777 27.9973L54.8807 27.9554C54.3832 31.4841 52.2871 34.7416 48.924 36.5878L49.0684 36.8508ZM55.1777 27.9973L55.3952 28.2039L56.1237 27.4373L55.9062 27.2307L55.6888 27.024L54.9603 27.7906L55.1777 27.9973ZM55.9062 27.2307L56.1237 27.4373C57.7455 25.7302 59.9331 24.6713 62.2781 24.4582L62.251 24.1594L62.2238 23.8606C59.7338 24.087 57.4109 25.2113 55.6888 27.024L55.9062 27.2307ZM62.251 24.1594L62.2782 24.4582L67.7977 23.9552L67.7705 23.6565L67.7433 23.3577L62.2238 23.8606L62.251 24.1594ZM67.7705 23.6565L68.0691 23.6273L68.0613 23.5473L67.7627 23.5764L67.4641 23.6055L67.4719 23.6856L67.7705 23.6565ZM67.7627 23.5764L67.7613 23.8764L68.607 23.8803L68.6084 23.5803L68.6098 23.2803L67.7641 23.2764L67.7627 23.5764ZM68.6084 23.5803L68.6352 23.8791L69.5268 23.799L69.5 23.5002L69.4732 23.2014L68.5816 23.2815L68.6084 23.5803ZM69.5 23.5002L69.2061 23.5603L69.2237 23.6463L69.5176 23.5861L69.8115 23.526L69.7939 23.4401L69.5 23.5002ZM37.752 16.2336L37.8963 16.4966C43.137 13.6198 49.7176 15.5358 52.5944 20.7764L52.8574 20.632L53.1204 20.4877C50.0841 14.9565 43.1388 12.9344 37.6076 15.9706L37.752 16.2336ZM52.8574 20.632L52.5944 20.7764C55.4712 26.0171 53.5552 32.5977 48.3146 35.4745L48.459 35.7375L48.6033 36.0005C54.1344 32.9642 56.1566 26.0188 53.1204 20.4877L52.8574 20.632ZM48.459 35.7375L48.3146 35.4745C43.0739 38.3513 36.4933 36.4345 33.6165 31.1937L33.3535 31.3381L33.0905 31.4825C36.1268 37.0137 43.0721 39.0368 48.6033 36.0005L48.459 35.7375ZM33.3535 31.3381L33.6165 31.1937C30.74 25.9532 32.656 19.3734 37.8963 16.4966L37.752 16.2336L37.6076 15.9706C32.0767 19.007 30.0546 25.9514 33.0905 31.4825L33.3535 31.3381Z" fill="#B3B3B3" mask="url(#path-1-inside-1_181_114)"/>
<mask id="path-3-inside-2_181_114" fill="white">
<path d="M122.266 101.112L119.273 106.858C117.305 110.636 114.555 113.952 111.205 116.585L103.875 122.346L99.7588 114.343L105.023 109.353C107.542 106.965 109.627 104.157 111.186 101.055L112.48 98.4822L93.4091 93.3568L93.6146 93.0507C100.101 83.3638 99.581 70.5947 92.3294 61.4665L111.489 56.9671L110.492 55.1035C108.856 52.0417 106.702 49.2868 104.124 46.9619L98.7371 42.1046L102.652 34L110.125 39.5776C113.539 42.1258 116.37 45.3725 118.432 49.1003L121.485 54.6202L121.516 54.6131L121.734 55.0697L122.417 56.3066L122.337 56.3403L124.44 60.7687C125.283 62.5442 125.577 64.5173 125.309 66.4412C121.902 68.6398 119.692 72.5119 119.811 76.8609C119.92 80.7945 121.91 84.2336 124.895 86.3407L125.244 87.339C126.045 89.6303 125.986 92.1352 125.077 94.386L123.002 99.5254L123.077 99.555L122.687 100.306L122.351 101.135L122.266 101.112ZM143.322 76.2161C143.491 82.3579 138.648 87.4734 132.507 87.6422C126.365 87.8109 121.249 82.9692 121.08 76.8275C120.911 70.6858 125.754 65.5702 131.896 65.4015C138.037 65.2328 143.153 70.0744 143.322 76.2161Z"/>
</mask>
<path d="M122.266 101.112L119.273 106.858C117.305 110.636 114.555 113.952 111.205 116.585L103.875 122.346L99.7588 114.343L105.023 109.353C107.542 106.965 109.627 104.157 111.186 101.055L112.48 98.4822L93.4091 93.3568L93.6146 93.0507C100.101 83.3638 99.581 70.5947 92.3294 61.4665L111.489 56.9671L110.492 55.1035C108.856 52.0417 106.702 49.2868 104.124 46.9619L98.7371 42.1046L102.652 34L110.125 39.5776C113.539 42.1258 116.37 45.3725 118.432 49.1003L121.485 54.6202L121.516 54.6131L121.734 55.0697L122.417 56.3066L122.337 56.3403L124.44 60.7687C125.283 62.5442 125.577 64.5173 125.309 66.4412C121.902 68.6398 119.692 72.5119 119.811 76.8609C119.92 80.7945 121.91 84.2336 124.895 86.3407L125.244 87.339C126.045 89.6303 125.986 92.1352 125.077 94.386L123.002 99.5254L123.077 99.555L122.687 100.306L122.351 101.135L122.266 101.112ZM143.322 76.2161C143.491 82.3579 138.648 87.4734 132.507 87.6422C126.365 87.8109 121.249 82.9692 121.08 76.8275C120.911 70.6858 125.754 65.5702 131.896 65.4015C138.037 65.2328 143.153 70.0744 143.322 76.2161Z" fill="white"/>
<path fill-rule="evenodd" clip-rule="evenodd" d="M122.266 101.112L122.347 100.823L122.113 100.757L122 100.973L122.266 101.112ZM119.273 106.858L119.007 106.719L119.007 106.719L119.273 106.858ZM111.205 116.585L111.391 116.82L111.391 116.82L111.205 116.585ZM103.875 122.346L103.608 122.483L103.774 122.807L104.06 122.582L103.875 122.346ZM99.7588 114.343L99.5524 114.125L99.3891 114.28L99.492 114.48L99.7588 114.343ZM105.023 109.353L105.229 109.571L105.229 109.571L105.023 109.353ZM111.186 101.055L110.918 100.92L110.918 100.92L111.186 101.055ZM112.48 98.4822L112.748 98.617L112.914 98.288L112.558 98.1924L112.48 98.4822ZM93.4091 93.3568L93.16 93.1896L92.9262 93.5377L93.3312 93.6465L93.4091 93.3568ZM93.6146 93.0507L93.8637 93.2179L93.8639 93.2176L93.6146 93.0507ZM92.3294 61.4665L92.2608 61.1745L91.8001 61.2826L92.0945 61.6531L92.3294 61.4665ZM111.489 56.9671L111.557 57.2592L111.937 57.1699L111.753 56.8256L111.489 56.9671ZM110.492 55.1035L110.227 55.2449L110.227 55.245L110.492 55.1035ZM104.124 46.9619L104.324 46.7392L104.324 46.7391L104.124 46.9619ZM98.7371 42.1046L98.467 41.9741L98.3691 42.1767L98.5362 42.3274L98.7371 42.1046ZM102.652 34L102.832 33.7595L102.54 33.542L102.382 33.8695L102.652 34ZM110.125 39.5776L110.304 39.3372L110.304 39.3372L110.125 39.5776ZM118.432 49.1003L118.169 49.2455L118.169 49.2456L118.432 49.1003ZM121.485 54.6202L121.223 54.7654L121.332 54.9628L121.552 54.9127L121.485 54.6202ZM121.516 54.6131L121.787 54.484L121.684 54.2672L121.449 54.3206L121.516 54.6131ZM121.734 55.0697L121.463 55.1988L121.467 55.2069L121.471 55.2147L121.734 55.0697ZM122.417 56.3066L122.534 56.5831L122.841 56.4536L122.68 56.1616L122.417 56.3066ZM122.337 56.3403L122.221 56.0638L121.932 56.1855L122.066 56.4689L122.337 56.3403ZM124.44 60.7687L124.169 60.8974L124.169 60.8974L124.44 60.7687ZM125.309 66.4412L125.472 66.6933L125.587 66.6188L125.606 66.4827L125.309 66.4412ZM119.811 76.8609L119.512 76.8691L119.512 76.8691L119.811 76.8609ZM124.895 86.3407L125.178 86.2416L125.146 86.151L125.068 86.0956L124.895 86.3407ZM125.244 87.339L124.961 87.438L124.961 87.438L125.244 87.339ZM125.077 94.386L124.799 94.2736L124.799 94.2737L125.077 94.386ZM123.002 99.5254L122.724 99.4131L122.611 99.6931L122.892 99.8043L123.002 99.5254ZM123.077 99.555L123.343 99.6933L123.496 99.3985L123.187 99.2761L123.077 99.555ZM122.687 100.306L122.421 100.167L122.414 100.18L122.409 100.193L122.687 100.306ZM122.351 101.135L122.27 101.424L122.528 101.496L122.629 101.248L122.351 101.135ZM143.322 76.2161L143.622 76.2079L143.622 76.2079L143.322 76.2161ZM132.507 87.6422L132.515 87.9421V87.9421L132.507 87.6422ZM121.08 76.8275L120.78 76.8358L120.78 76.8358L121.08 76.8275ZM131.896 65.4015L131.887 65.1016L131.887 65.1016L131.896 65.4015ZM122.266 101.112L122 100.973L119.007 106.719L119.273 106.858L119.539 106.997L122.532 101.25L122.266 101.112ZM119.273 106.858L119.007 106.719C117.058 110.46 114.336 113.742 111.02 116.349L111.205 116.585L111.391 116.82C114.773 114.162 117.551 110.813 119.539 106.997L119.273 106.858ZM111.205 116.585L111.02 116.349L103.689 122.11L103.875 122.346L104.06 122.582L111.391 116.82L111.205 116.585ZM103.875 122.346L104.142 122.209L100.026 114.206L99.7588 114.343L99.492 114.48L103.608 122.483L103.875 122.346ZM99.7588 114.343L99.9651 114.561L105.229 109.571L105.023 109.353L104.816 109.135L99.5524 114.125L99.7588 114.343ZM105.023 109.353L105.229 109.571C107.774 107.158 109.879 104.322 111.454 101.19L111.186 101.055L110.918 100.92C109.374 103.991 107.31 106.771 104.816 109.135L105.023 109.353ZM111.186 101.055L111.454 101.19L112.748 98.617L112.48 98.4822L112.212 98.3473L110.918 100.92L111.186 101.055ZM112.48 98.4822L112.558 98.1924L93.4869 93.0671L93.4091 93.3568L93.3312 93.6465L112.402 98.7719L112.48 98.4822ZM93.4091 93.3568L93.6581 93.5241L93.8637 93.2179L93.6146 93.0507L93.3656 92.8835L93.16 93.1896L93.4091 93.3568ZM93.6146 93.0507L93.8639 93.2176C100.423 83.4223 99.8971 70.5102 92.5643 61.2799L92.3294 61.4665L92.0945 61.6531C99.265 70.6791 99.7792 83.3053 93.3653 92.8838L93.6146 93.0507ZM92.3294 61.4665L92.3979 61.7586L111.557 57.2592L111.489 56.9671L111.42 56.6751L92.2608 61.1745L92.3294 61.4665ZM111.489 56.9671L111.753 56.8256L110.756 54.962L110.492 55.1035L110.227 55.245L111.224 57.1086L111.489 56.9671ZM110.492 55.1035L110.756 54.9621C109.104 51.8697 106.928 49.0873 104.324 46.7392L104.124 46.9619L103.923 47.1847C106.475 49.4863 108.608 52.2136 110.227 55.2449L110.492 55.1035ZM104.124 46.9619L104.324 46.7391L98.938 41.8818L98.7371 42.1046L98.5362 42.3274L103.923 47.1847L104.124 46.9619ZM98.7371 42.1046L99.0073 42.2351L102.922 34.1305L102.652 34L102.382 33.8695L98.467 41.9741L98.7371 42.1046ZM102.652 34L102.473 34.2404L109.945 39.818L110.125 39.5776L110.304 39.3372L102.832 33.7595L102.652 34ZM110.125 39.5776L109.945 39.818C113.325 42.3407 116.128 45.5549 118.169 49.2455L118.432 49.1003L118.694 48.9552C116.612 45.1901 113.752 41.9109 110.304 39.3372L110.125 39.5776ZM118.432 49.1003L118.169 49.2456L121.223 54.7654L121.485 54.6202L121.748 54.475L118.694 48.9551L118.432 49.1003ZM121.485 54.6202L121.552 54.9127L121.583 54.9056L121.516 54.6131L121.449 54.3206L121.418 54.3277L121.485 54.6202ZM121.516 54.6131L121.245 54.7422L121.463 55.1988L121.734 55.0697L122.005 54.9406L121.787 54.484L121.516 54.6131ZM121.734 55.0697L121.471 55.2147L122.154 56.4517L122.417 56.3066L122.68 56.1616L121.997 54.9247L121.734 55.0697ZM122.417 56.3066L122.301 56.0301L122.221 56.0638L122.337 56.3403L122.454 56.6167L122.534 56.5831L122.417 56.3066ZM122.337 56.3403L122.066 56.4689L124.169 60.8974L124.44 60.7687L124.711 60.6401L122.608 56.2116L122.337 56.3403ZM124.44 60.7687L124.169 60.8974C124.986 62.6195 125.272 64.5334 125.012 66.3998L125.309 66.4412L125.606 66.4827C125.883 64.5012 125.579 62.4689 124.711 60.64L124.44 60.7687ZM125.309 66.4412L125.146 66.1892C121.655 68.4422 119.389 72.411 119.512 76.8691L119.811 76.8609L120.111 76.8526C119.995 72.6127 122.149 68.8374 125.472 66.6933L125.309 66.4412ZM119.811 76.8609L119.512 76.8691C119.622 80.9013 121.663 84.4265 124.722 86.5857L124.895 86.3407L125.068 86.0956C122.157 84.0407 120.217 80.6877 120.111 76.8526L119.811 76.8609ZM124.895 86.3407L124.612 86.4397L124.961 87.438L125.244 87.339L125.527 87.2399L125.178 86.2416L124.895 86.3407ZM125.244 87.339L124.961 87.438C125.738 89.6606 125.68 92.0903 124.799 94.2736L125.077 94.386L125.355 94.4983C126.291 92.18 126.353 89.6 125.527 87.2399L125.244 87.339ZM125.077 94.386L124.799 94.2737L122.724 99.4131L123.002 99.5254L123.28 99.6377L125.355 94.4983L125.077 94.386ZM123.002 99.5254L122.892 99.8043L122.966 99.8339L123.077 99.555L123.187 99.2761L123.113 99.2465L123.002 99.5254ZM123.077 99.555L122.811 99.4167L122.421 100.167L122.687 100.306L122.953 100.444L123.343 99.6933L123.077 99.555ZM122.687 100.306L122.409 100.193L122.073 101.023L122.351 101.135L122.629 101.248L122.965 100.418L122.687 100.306ZM122.351 101.135L122.432 100.846L122.347 100.823L122.266 101.112L122.185 101.4L122.27 101.424L122.351 101.135ZM143.322 76.2161L143.022 76.2244C143.186 82.2005 138.475 87.1781 132.498 87.3423L132.507 87.6422L132.515 87.9421C138.822 87.7687 143.795 82.5153 143.622 76.2079L143.322 76.2161ZM132.507 87.6422L132.498 87.3423C126.522 87.5065 121.544 82.7954 121.38 76.8193L121.08 76.8275L120.78 76.8358C120.954 83.1431 126.208 88.1154 132.515 87.9421L132.507 87.6422ZM121.08 76.8275L121.38 76.8193C121.216 70.8432 125.928 65.8656 131.904 65.7014L131.896 65.4015L131.887 65.1016C125.58 65.2749 120.607 70.5283 120.78 76.8358L121.08 76.8275ZM131.896 65.4015L131.904 65.7014C137.88 65.5372 142.858 70.2483 143.022 76.2244L143.322 76.2161L143.622 76.2079C143.449 69.9005 138.195 64.9284 131.887 65.1016L131.896 65.4015Z" fill="#B3B3B3" mask="url(#path-3-inside-2_181_114)"/>
<mask id="path-5-inside-3_181_114" fill="white">
<path d="M25.8345 108.222L22.5328 102.646C20.3619 98.9809 18.9964 94.8953 18.5274 90.6612L17.5011 81.3941L26.4716 82.1208L27.9334 89.2248C28.633 92.6249 29.9172 95.8783 31.7293 98.8391L33.2327 101.296L47.6487 87.8005L47.8003 88.1367C52.6062 98.7579 63.7275 105.054 75.3078 103.711L69.0196 122.359L71.1291 122.496C74.5933 122.722 78.071 122.346 81.4062 121.382L88.3745 119.37L93.1931 126.972L84.5123 130.377C80.5463 131.932 76.2944 132.624 72.0399 132.408L65.739 132.09L65.7286 132.12L65.217 132.062L63.8155 131.991L63.8296 131.906L58.9571 131.355C57.0041 131.134 55.1724 130.344 53.6799 129.1C53.6099 125.046 51.4872 121.126 47.7297 118.932C44.3311 116.949 40.3598 116.824 36.9946 118.249L35.9625 118.018C33.5932 117.49 31.4968 116.118 30.0646 114.158L26.7937 109.683L26.729 109.731L26.2973 109.004L25.7699 108.281L25.8345 108.222ZM35.8725 139.243C30.5664 136.146 28.7756 129.334 31.8727 124.027C34.97 118.721 41.7824 116.931 47.0886 120.028C52.3947 123.125 54.1857 129.937 51.0884 135.244C47.991 140.55 41.1787 142.341 35.8725 139.243Z"/>
</mask>
<path d="M25.8345 108.222L22.5328 102.646C20.3619 98.9809 18.9964 94.8953 18.5274 90.6612L17.5011 81.3941L26.4716 82.1208L27.9334 89.2248C28.633 92.6249 29.9172 95.8783 31.7293 98.8391L33.2327 101.296L47.6487 87.8005L47.8003 88.1367C52.6062 98.7579 63.7275 105.054 75.3078 103.711L69.0196 122.359L71.1291 122.496C74.5933 122.722 78.071 122.346 81.4062 121.382L88.3745 119.37L93.1931 126.972L84.5123 130.377C80.5463 131.932 76.2944 132.624 72.0399 132.408L65.739 132.09L65.7286 132.12L65.217 132.062L63.8155 131.991L63.8296 131.906L58.9571 131.355C57.0041 131.134 55.1724 130.344 53.6799 129.1C53.6099 125.046 51.4872 121.126 47.7297 118.932C44.3311 116.949 40.3598 116.824 36.9946 118.249L35.9625 118.018C33.5932 117.49 31.4968 116.118 30.0646 114.158L26.7937 109.683L26.729 109.731L26.2973 109.004L25.7699 108.281L25.8345 108.222ZM35.8725 139.243C30.5664 136.146 28.7756 129.334 31.8727 124.027C34.97 118.721 41.7824 116.931 47.0886 120.028C52.3947 123.125 54.1857 129.937 51.0884 135.244C47.991 140.55 41.1787 142.341 35.8725 139.243Z" fill="#F9F123"/>
<path fill-rule="evenodd" clip-rule="evenodd" d="M25.8345 108.222L26.0373 108.443L26.2167 108.278L26.0927 108.069L25.8345 108.222ZM22.5328 102.646L22.7909 102.493L22.7909 102.493L22.5328 102.646ZM18.5274 90.6612L18.2292 90.6942L18.2292 90.6942L18.5274 90.6612ZM17.5011 81.3941L17.5253 81.0951L17.1629 81.0657L17.2029 81.4271L17.5011 81.3941ZM26.4716 82.1208L26.7654 82.0603L26.7201 81.8399L26.4958 81.8217L26.4716 82.1208ZM27.9334 89.2248L28.2272 89.1643L28.2272 89.1643L27.9334 89.2248ZM31.7293 98.8391L31.4734 98.9957L31.4734 98.9957L31.7293 98.8391ZM33.2327 101.296L32.9768 101.452L33.169 101.766L33.4377 101.515L33.2327 101.296ZM47.6487 87.8005L47.9222 87.6772L47.7498 87.295L47.4437 87.5815L47.6487 87.8005ZM47.8003 88.1367L47.5268 88.26L47.527 88.2604L47.8003 88.1367ZM75.3078 103.711L75.592 103.807L75.7432 103.358L75.2732 103.413L75.3078 103.711ZM69.0196 122.359L68.7353 122.263L68.6106 122.633L69.0001 122.658L69.0196 122.359ZM71.1291 122.496L71.1487 122.197L71.1486 122.197L71.1291 122.496ZM81.4062 121.382L81.4894 121.671L81.4894 121.671L81.4062 121.382ZM88.3745 119.37L88.6279 119.209L88.5075 119.019L88.2913 119.082L88.3745 119.37ZM93.1931 126.972L93.3026 127.252L93.6412 127.119L93.4465 126.812L93.1931 126.972ZM84.5123 130.377L84.6218 130.656L84.6218 130.656L84.5123 130.377ZM72.0399 132.408L72.0551 132.108L72.055 132.108L72.0399 132.408ZM65.739 132.09L65.7541 131.79L65.5288 131.779L65.4553 131.992L65.739 132.09ZM65.7286 132.12L65.6951 132.418L65.934 132.445L66.0122 132.218L65.7286 132.12ZM65.217 132.062L65.2504 131.764L65.2413 131.763L65.2322 131.763L65.217 132.062ZM63.8155 131.991L63.5195 131.942L63.4645 132.274L63.8002 132.291L63.8155 131.991ZM63.8296 131.906L64.1255 131.955L64.1773 131.644L63.8633 131.608L63.8296 131.906ZM58.9571 131.355L58.9908 131.057L58.9908 131.057L58.9571 131.355ZM53.6799 129.1L53.3799 129.106L53.3823 129.243L53.4879 129.331L53.6799 129.1ZM47.7297 118.932L47.8809 118.673L47.8809 118.673L47.7297 118.932ZM36.9946 118.249L36.9293 118.541L37.0231 118.562L37.1116 118.525L36.9946 118.249ZM35.9625 118.018L36.0278 117.725L36.0278 117.725L35.9625 118.018ZM30.0646 114.158L30.3068 113.981L30.3068 113.981L30.0646 114.158ZM26.7937 109.683L27.0358 109.506L26.8577 109.263L26.6151 109.442L26.7937 109.683ZM26.729 109.731L26.471 109.885L26.6407 110.17L26.9076 109.972L26.729 109.731ZM26.2973 109.004L26.5552 108.851L26.548 108.839L26.5397 108.827L26.2973 109.004ZM25.7699 108.281L25.5671 108.06L25.3695 108.241L25.5275 108.458L25.7699 108.281ZM35.8725 139.243L35.7212 139.502L35.7212 139.502L35.8725 139.243ZM31.8727 124.027L31.6136 123.876L31.6136 123.876L31.8727 124.027ZM47.0886 120.028L47.2398 119.769L47.2398 119.769L47.0886 120.028ZM51.0884 135.244L51.3474 135.395L51.3475 135.395L51.0884 135.244ZM25.8345 108.222L26.0927 108.069L22.7909 102.493L22.5328 102.646L22.2747 102.799L25.5764 108.374L25.8345 108.222ZM22.5328 102.646L22.7909 102.493C20.6418 98.8647 19.2899 94.8199 18.8256 90.6282L18.5274 90.6612L18.2292 90.6942C18.7029 94.9707 20.0821 99.0972 22.2747 102.799L22.5328 102.646ZM18.5274 90.6612L18.8256 90.6282L17.7993 81.3611L17.5011 81.3941L17.2029 81.4271L18.2292 90.6942L18.5274 90.6612ZM17.5011 81.3941L17.4769 81.6931L26.4474 82.4198L26.4716 82.1208L26.4958 81.8217L17.5253 81.0951L17.5011 81.3941ZM26.4716 82.1208L26.1778 82.1812L27.6396 89.2852L27.9334 89.2248L28.2272 89.1643L26.7654 82.0603L26.4716 82.1208ZM27.9334 89.2248L27.6395 89.2852C28.3462 92.7193 29.6432 96.0052 31.4734 98.9957L31.7293 98.8391L31.9852 98.6825C30.1913 95.7513 28.9199 92.5304 28.2272 89.1643L27.9334 89.2248ZM31.7293 98.8391L31.4734 98.9957L32.9768 101.452L33.2327 101.296L33.4886 101.139L31.9852 98.6825L31.7293 98.8391ZM33.2327 101.296L33.4377 101.515L47.8537 88.0196L47.6487 87.8005L47.4437 87.5815L33.0277 101.077L33.2327 101.296ZM47.6487 87.8005L47.3752 87.9239L47.5268 88.26L47.8003 88.1367L48.0738 88.0134L47.9222 87.6772L47.6487 87.8005ZM47.8003 88.1367L47.527 88.2604C52.3867 99.0005 63.6324 105.367 75.3423 104.009L75.3078 103.711L75.2732 103.413C63.8225 104.741 52.8257 98.5154 48.0736 88.013L47.8003 88.1367ZM75.3078 103.711L75.0235 103.615L68.7353 122.263L69.0196 122.359L69.3039 122.455L75.592 103.807L75.3078 103.711ZM69.0196 122.359L69.0001 122.658L71.1097 122.796L71.1291 122.496L71.1486 122.197L69.0391 122.06L69.0196 122.359ZM71.1291 122.496L71.1096 122.796C74.6084 123.024 78.1208 122.643 81.4894 121.671L81.4062 121.382L81.323 121.094C78.0211 122.048 74.5782 122.421 71.1487 122.197L71.1291 122.496ZM81.4062 121.382L81.4894 121.671L88.4578 119.658L88.3745 119.37L88.2913 119.082L81.323 121.094L81.4062 121.382ZM88.3745 119.37L88.1211 119.531L92.9397 127.133L93.1931 126.972L93.4465 126.812L88.6279 119.209L88.3745 119.37ZM93.1931 126.972L93.0836 126.693L84.4027 130.097L84.5123 130.377L84.6218 130.656L93.3026 127.252L93.1931 126.972ZM84.5123 130.377L84.4027 130.097C80.4765 131.637 76.2671 132.322 72.0551 132.108L72.0399 132.408L72.0247 132.708C76.3217 132.926 80.6161 132.227 84.6218 130.656L84.5123 130.377ZM72.0399 132.408L72.055 132.108L65.7541 131.79L65.739 132.09L65.7239 132.389L72.0247 132.708L72.0399 132.408ZM65.739 132.09L65.4553 131.992L65.445 132.022L65.7286 132.12L66.0122 132.218L66.0226 132.187L65.739 132.09ZM65.7286 132.12L65.7621 131.822L65.2504 131.764L65.217 132.062L65.1835 132.361L65.6951 132.418L65.7286 132.12ZM65.217 132.062L65.2322 131.763L63.8308 131.691L63.8155 131.991L63.8002 132.291L65.2017 132.362L65.217 132.062ZM63.8155 131.991L64.1114 132.04L64.1255 131.955L63.8296 131.906L63.5336 131.857L63.5195 131.942L63.8155 131.991ZM63.8296 131.906L63.8633 131.608L58.9908 131.057L58.9571 131.355L58.9234 131.653L63.7958 132.204L63.8296 131.906ZM58.9571 131.355L58.9908 131.057C57.0965 130.843 55.3198 130.076 53.8719 128.87L53.6799 129.1L53.4879 129.331C55.0251 130.611 56.9116 131.426 58.9234 131.653L58.9571 131.355ZM53.6799 129.1L53.9798 129.095C53.9081 124.941 51.7327 120.922 47.8809 118.673L47.7297 118.932L47.5785 119.191C51.2417 121.33 53.3117 125.152 53.3799 129.106L53.6799 129.1ZM47.7297 118.932L47.8809 118.673C44.3972 116.64 40.3262 116.513 36.8777 117.972L36.9946 118.249L37.1116 118.525C40.3934 117.136 44.265 117.257 47.5785 119.191L47.7297 118.932ZM36.9946 118.249L37.06 117.956L36.0278 117.725L35.9625 118.018L35.8971 118.311L36.9293 118.541L36.9946 118.249ZM35.9625 118.018L36.0278 117.725C33.7296 117.213 31.696 115.882 30.3068 113.981L30.0646 114.158L29.8224 114.335C31.2975 116.353 33.4569 117.767 35.8972 118.311L35.9625 118.018ZM30.0646 114.158L30.3068 113.981L27.0358 109.506L26.7937 109.683L26.5515 109.861L29.8224 114.335L30.0646 114.158ZM26.7937 109.683L26.6151 109.442L26.5504 109.49L26.729 109.731L26.9076 109.972L26.9722 109.925L26.7937 109.683ZM26.729 109.731L26.987 109.578L26.5552 108.851L26.2973 109.004L26.0393 109.157L26.471 109.885L26.729 109.731ZM26.2973 109.004L26.5397 108.827L26.0123 108.104L25.7699 108.281L25.5275 108.458L26.0548 109.181L26.2973 109.004ZM25.7699 108.281L25.9726 108.502L26.0373 108.443L25.8345 108.222L25.6318 108L25.5671 108.06L25.7699 108.281ZM35.8725 139.243L36.0237 138.984C30.8607 135.97 29.1182 129.342 32.1318 124.179L31.8727 124.027L31.6136 123.876C28.433 129.326 30.2721 136.322 35.7212 139.502L35.8725 139.243ZM31.8727 124.027L32.1318 124.179C35.1456 119.016 41.7743 117.273 46.9373 120.287L47.0886 120.028L47.2398 119.769C41.7906 116.588 34.7945 118.427 31.6136 123.876L31.8727 124.027ZM47.0886 120.028L46.9373 120.287C52.1004 123.301 53.8431 129.929 50.8293 135.092L51.0884 135.244L51.3475 135.395C54.5283 129.946 52.6891 122.95 47.2398 119.769L47.0886 120.028ZM51.0884 135.244L50.8293 135.092C47.8154 140.255 41.1868 141.998 36.0237 138.984L35.8725 139.243L35.7212 139.502C41.1705 142.683 48.1665 140.844 51.3474 135.395L51.0884 135.244Z" fill="#B3B3B3" mask="url(#path-5-inside-3_181_114)"/>
<mask id="path-7-inside-4_181_114" fill="white">
<path d="M72.2402 56.0023C79.6945 55.8588 85.8543 61.7854 85.998 69.2396L86.0254 70.6703C86.0893 73.9901 84.8038 77.0197 82.6758 79.2425C83.5033 80.2711 84 81.5775 84 83.0004C83.9998 86.3139 81.3136 89.0004 78 89.0004C74.6864 89.0004 72.0002 86.3139 72 83.0004C72 79.6866 74.6863 77.0004 78 77.0004C78.3407 77.0004 78.6748 77.0288 79 77.0834V77.0004L80.5 74.0004L81 72.5004V70.0004L80.9844 69.9701C80.9958 69.7606 81.0031 69.5494 80.999 69.3363C80.9086 64.6429 77.0303 60.9112 72.3369 61.0013C68.949 61.0666 66.0628 63.1059 64.7529 66.0004H59.459C60.9754 60.3388 66.0869 56.1208 72.2402 56.0023Z"/>
</mask>
<path d="M72.2402 56.0023C79.6945 55.8588 85.8543 61.7854 85.998 69.2396L86.0254 70.6703C86.0893 73.9901 84.8038 77.0197 82.6758 79.2425C83.5033 80.2711 84 81.5775 84 83.0004C83.9998 86.3139 81.3136 89.0004 78 89.0004C74.6864 89.0004 72.0002 86.3139 72 83.0004C72 79.6866 74.6863 77.0004 78 77.0004C78.3407 77.0004 78.6748 77.0288 79 77.0834V77.0004L80.5 74.0004L81 72.5004V70.0004L80.9844 69.9701C80.9958 69.7606 81.0031 69.5494 80.999 69.3363C80.9086 64.6429 77.0303 60.9112 72.3369 61.0013C68.949 61.0666 66.0628 63.1059 64.7529 66.0004H59.459C60.9754 60.3388 66.0869 56.1208 72.2402 56.0023Z" fill="#00C2EF"/>
<path fill-rule="evenodd" clip-rule="evenodd" d="M72.2402 56.0023L72.2345 55.7024L72.2345 55.7024L72.2402 56.0023ZM85.998 69.2396L86.298 69.2339L86.298 69.2338L85.998 69.2396ZM86.0254 70.6703L85.7254 70.676L85.7254 70.6761L86.0254 70.6703ZM82.6758 79.2425L82.4591 79.0351L82.2769 79.2254L82.442 79.4306L82.6758 79.2425ZM84 83.0004L84.3 83.0004V83.0004H84ZM72 83.0004H71.7V83.0004L72 83.0004ZM79 77.0834L78.9504 77.3792L79.3 77.4379V77.0834H79ZM79 77.0004L78.7317 76.8662L78.7 76.9295V77.0004H79ZM80.5 74.0004L80.7683 74.1345L80.7779 74.1154L80.7846 74.0952L80.5 74.0004ZM81 72.5004L81.2846 72.5952L81.3 72.549V72.5004H81ZM81 70.0004H81.3V69.9275L81.2666 69.8628L81 70.0004ZM80.9844 69.9701L80.6848 69.9538L80.6804 70.0352L80.7178 70.1077L80.9844 69.9701ZM80.999 69.3363L81.299 69.3305V69.3305L80.999 69.3363ZM72.3369 61.0013L72.3312 60.7014L72.3311 60.7014L72.3369 61.0013ZM64.7529 66.0004V66.3004H64.9465L65.0262 66.124L64.7529 66.0004ZM59.459 66.0004L59.1692 65.9227L59.0681 66.3004H59.459V66.0004ZM72.2402 56.0023L72.246 56.3023C79.5347 56.1619 85.5575 61.9568 85.6981 69.2454L85.998 69.2396L86.298 69.2338C86.151 61.6139 79.8544 55.5557 72.2345 55.7024L72.2402 56.0023ZM85.998 69.2396L85.6981 69.2453L85.7254 70.676L86.0254 70.6703L86.3253 70.6645L86.298 69.2339L85.998 69.2396ZM86.0254 70.6703L85.7254 70.6761C85.7878 73.9132 84.5346 76.8671 82.4591 79.0351L82.6758 79.2425L82.8925 79.45C85.0729 77.1724 86.3908 74.067 86.3253 70.6645L86.0254 70.6703ZM82.6758 79.2425L82.442 79.4306C83.2284 80.4079 83.7 81.6486 83.7 83.0004H84H84.3C84.3 81.5064 83.7782 80.1342 82.9095 79.0545L82.6758 79.2425ZM84 83.0004L83.7 83.0003C83.6998 86.1482 81.1479 88.7004 78 88.7004V89.0004V89.3004C81.4793 89.3004 84.2998 86.4796 84.3 83.0004L84 83.0004ZM78 89.0004V88.7004C74.8521 88.7004 72.3002 86.1482 72.3 83.0003L72 83.0004L71.7 83.0004C71.7002 86.4796 74.5207 89.3004 78 89.3004V89.0004ZM72 83.0004H72.3C72.3 79.8523 74.852 77.3004 78 77.3004V77.0004V76.7004C74.5206 76.7004 71.7 79.521 71.7 83.0004H72ZM78 77.0004V77.3004C78.324 77.3004 78.6414 77.3274 78.9504 77.3792L79 77.0834L79.0496 76.7875C78.7081 76.7302 78.3575 76.7004 78 76.7004V77.0004ZM79 77.0834H79.3V77.0004H79H78.7V77.0834H79ZM79 77.0004L79.2683 77.1345L80.7683 74.1345L80.5 74.0004L80.2317 73.8662L78.7317 76.8662L79 77.0004ZM80.5 74.0004L80.7846 74.0952L81.2846 72.5952L81 72.5004L80.7154 72.4055L80.2154 73.9055L80.5 74.0004ZM81 72.5004H81.3V70.0004H81H80.7V72.5004H81ZM81 70.0004L81.2666 69.8628L81.251 69.8325L80.9844 69.9701L80.7178 70.1077L80.7334 70.1379L81 70.0004ZM80.9844 69.9701L81.2839 69.9864C81.2955 69.7734 81.3033 69.554 81.299 69.3305L80.999 69.3363L80.6991 69.3421C80.703 69.5448 80.696 69.7479 80.6848 69.9538L80.9844 69.9701ZM80.999 69.3363L81.299 69.3305C81.2054 64.4714 77.1902 60.608 72.3312 60.7014L72.3369 61.0013L72.3427 61.3013C76.8704 61.2143 80.6119 64.8143 80.6991 69.3421L80.999 69.3363ZM72.3369 61.0013L72.3311 60.7014C68.8231 60.7689 65.8354 62.8808 64.4796 65.8767L64.7529 66.0004L65.0262 66.124C66.2902 63.331 69.0749 61.3642 72.3427 61.3013L72.3369 61.0013ZM64.7529 66.0004V65.7004H59.459V66.0004V66.3004H64.7529V66.0004ZM59.459 66.0004L59.7488 66.078C61.2315 60.542 66.2298 56.4181 72.246 56.3023L72.2402 56.0023L72.2345 55.7024C65.9439 55.8235 60.7192 60.1356 59.1692 65.9227L59.459 66.0004Z" fill="#B3B3B3" mask="url(#path-7-inside-4_181_114)"/>
<mask id="path-9-inside-5_181_114" fill="white">
<path d="M53.6478 90.5467C49.1764 84.5806 50.3878 76.119 56.3536 71.6474L57.4987 70.7894C60.1555 68.7982 63.3653 68.0709 66.4123 68.4991C66.7636 67.2268 67.5345 66.0609 68.6891 65.2297C71.3784 63.2941 75.1281 63.9047 77.0639 66.594C78.9998 69.2833 78.3888 73.0329 75.6997 74.9689C73.0103 76.9048 69.2607 76.294 67.3248 73.6046C67.1257 73.3281 66.9537 73.0404 66.8079 72.7445L66.7398 72.7936L63.4287 73.3289L61.9192 73.7994L59.8902 75.2599L59.8747 75.2903C59.6985 75.4032 59.5228 75.5206 59.3526 75.6481C55.5965 78.4635 54.8335 83.7913 57.6485 87.5477C59.6806 90.259 63.0215 91.4104 66.1356 90.7829L69.2284 95.0794C63.7479 97.1558 57.3387 95.4712 53.6478 90.5467Z"/>
</mask>
<path d="M53.6478 90.5467C49.1764 84.5806 50.3878 76.119 56.3536 71.6474L57.4987 70.7894C60.1555 68.7982 63.3653 68.0709 66.4123 68.4991C66.7636 67.2268 67.5345 66.0609 68.6891 65.2297C71.3784 63.2941 75.1281 63.9047 77.0639 66.594C78.9998 69.2833 78.3888 73.0329 75.6997 74.9689C73.0103 76.9048 69.2607 76.294 67.3248 73.6046C67.1257 73.3281 66.9537 73.0404 66.8079 72.7445L66.7398 72.7936L63.4287 73.3289L61.9192 73.7994L59.8902 75.2599L59.8747 75.2903C59.6985 75.4032 59.5228 75.5206 59.3526 75.6481C55.5965 78.4635 54.8335 83.7913 57.6485 87.5477C59.6806 90.259 63.0215 91.4104 66.1356 90.7829L69.2284 95.0794C63.7479 97.1558 57.3387 95.4712 53.6478 90.5467Z" fill="#F9F123"/>
<path d="M53.6478 90.5467L53.4078 90.7266L53.4078 90.7266L53.6478 90.5467ZM56.3536 71.6474L56.1737 71.4073L56.1737 71.4074L56.3536 71.6474ZM57.4987 70.7894L57.6786 71.0295L57.6787 71.0295L57.4987 70.7894ZM66.4123 68.4991L66.3705 68.7961L66.6314 68.8328L66.7015 68.5789L66.4123 68.4991ZM68.6891 65.2297L68.5138 64.9862L68.5138 64.9863L68.6891 65.2297ZM75.6997 74.9689L75.8749 75.2124L75.875 75.2124L75.6997 74.9689ZM66.8079 72.7445L67.0771 72.612L66.9204 72.2939L66.6327 72.5011L66.8079 72.7445ZM66.7398 72.7936L66.7877 73.0898L66.8576 73.0785L66.915 73.0371L66.7398 72.7936ZM63.4287 73.3289L63.3808 73.0327L63.3597 73.0361L63.3394 73.0425L63.4287 73.3289ZM61.9192 73.7994L61.8299 73.513L61.7834 73.5275L61.7439 73.5559L61.9192 73.7994ZM59.8902 75.2599L59.7149 75.0165L59.6558 75.059L59.6228 75.124L59.8902 75.2599ZM59.8747 75.2903L60.0365 75.5429L60.1052 75.499L60.1421 75.4263L59.8747 75.2903ZM59.3526 75.6481L59.1727 75.4081L59.1727 75.4081L59.3526 75.6481ZM57.6485 87.5477L57.4085 87.7276L57.4085 87.7276L57.6485 87.5477ZM66.1356 90.7829L66.3791 90.6076L66.2661 90.4506L66.0764 90.4888L66.1356 90.7829ZM69.2284 95.0794L69.3347 95.36L69.7003 95.2215L69.4719 94.9042L69.2284 95.0794ZM53.6478 90.5467L53.8879 90.3668C49.5158 84.5333 50.7003 76.2597 56.5335 71.8875L56.3536 71.6474L56.1737 71.4074C50.0752 75.9783 48.837 84.628 53.4078 90.7266L53.6478 90.5467ZM56.3536 71.6474L56.5335 71.8875L57.6786 71.0295L57.4987 70.7894L57.3189 70.5493L56.1737 71.4073L56.3536 71.6474ZM57.4987 70.7894L57.6787 71.0295C60.2693 69.0879 63.3987 68.3785 66.3705 68.7961L66.4123 68.4991L66.454 68.202C63.3319 67.7632 60.0417 68.5086 57.3188 70.5493L57.4987 70.7894ZM66.4123 68.4991L66.7015 68.5789C67.0353 67.37 67.7673 66.2629 68.8643 65.4732L68.6891 65.2297L68.5138 64.9863C67.3016 65.8589 66.492 67.0835 66.1231 68.4192L66.4123 68.4991ZM68.6891 65.2297L68.8643 65.4732C71.4192 63.6343 74.9814 64.2145 76.8205 66.7693L77.0639 66.594L77.3074 66.4187C75.2748 63.595 71.3376 62.9538 68.5138 64.9862L68.6891 65.2297ZM77.0639 66.594L76.8205 66.7693C78.6595 69.3241 78.0791 72.8862 75.5244 74.7254L75.6997 74.9689L75.875 75.2124C78.6985 73.1796 79.3401 69.2425 77.3074 66.4187L77.0639 66.594ZM75.6997 74.9689L75.5244 74.7254C72.9695 76.5645 69.4074 75.9843 67.5683 73.4294L67.3248 73.6046L67.0813 73.7799C69.114 76.6038 73.0511 77.2451 75.8749 75.2124L75.6997 74.9689ZM67.3248 73.6046L67.5683 73.4294C67.379 73.1664 67.2155 72.893 67.0771 72.612L66.8079 72.7445L66.5388 72.8771C66.6918 73.1878 66.8725 73.4898 67.0813 73.7799L67.3248 73.6046ZM66.8079 72.7445L66.6327 72.5011L66.5645 72.5501L66.7398 72.7936L66.915 73.0371L66.9832 72.988L66.8079 72.7445ZM66.7398 72.7936L66.6919 72.4974L63.3808 73.0327L63.4287 73.3289L63.4765 73.625L66.7877 73.0898L66.7398 72.7936ZM63.4287 73.3289L63.3394 73.0425L61.8299 73.513L61.9192 73.7994L62.0084 74.0858L63.5179 73.6153L63.4287 73.3289ZM61.9192 73.7994L61.7439 73.5559L59.7149 75.0165L59.8902 75.2599L60.0654 75.5034L62.0944 74.0429L61.9192 73.7994ZM59.8902 75.2599L59.6228 75.124L59.6073 75.1543L59.8747 75.2903L60.1421 75.4263L60.1576 75.3959L59.8902 75.2599ZM59.8747 75.2903L59.7129 75.0377C59.5337 75.1525 59.3512 75.2743 59.1727 75.4081L59.3526 75.6481L59.5325 75.8882C59.6944 75.7669 59.8632 75.6539 60.0365 75.5429L59.8747 75.2903ZM59.3526 75.6481L59.1727 75.4081C55.284 78.3228 54.494 83.8387 57.4085 87.7276L57.6485 87.5477L57.8886 87.3678C55.1729 83.744 55.909 78.6042 59.5325 75.8882L59.3526 75.6481ZM57.6485 87.5477L57.4085 87.7276C59.5125 90.535 62.9717 91.7264 66.1949 91.077L66.1356 90.7829L66.0764 90.4888C63.0714 91.0943 59.8486 89.983 57.8886 87.3678L57.6485 87.5477ZM66.1356 90.7829L65.8921 90.9581L68.985 95.2547L69.2284 95.0794L69.4719 94.9042L66.3791 90.6076L66.1356 90.7829ZM69.2284 95.0794L69.1222 94.7989C63.7632 96.8292 57.4965 95.1815 53.8879 90.3668L53.6478 90.5467L53.4078 90.7266C57.181 95.761 63.7326 97.4824 69.3347 95.36L69.2284 95.0794Z" fill="#B3B3B3" mask="url(#path-9-inside-5_181_114)"/>
<mask id="path-11-inside-6_181_114" fill="white">
<path d="M91.5972 89.8523C88.2026 96.4904 80.0693 99.1202 73.4311 95.7258L72.1572 95.0742C69.2012 93.5625 67.1375 90.9987 66.1833 88.0735C64.886 88.3169 63.5 88.1368 62.2461 87.4648C59.3256 85.8994 58.2266 82.2628 59.7918 79.3422C61.357 76.4216 64.9937 75.3229 67.9144 76.8879C70.8351 78.4531 71.9339 82.0897 70.3687 85.0105C70.2077 85.3108 70.0249 85.5918 69.8232 85.8527L69.8972 85.8923L71.8329 88.6315L72.9188 89.7808L75.1223 90.9616L75.1564 90.9622C75.3353 91.0709 75.5179 91.1772 75.7072 91.274C79.8867 93.4111 85.0079 91.7555 87.1453 87.5762C88.688 84.5595 88.2543 81.0525 86.3223 78.5308L88.823 73.8646C93.0963 77.8755 94.3992 84.373 91.5972 89.8523Z"/>
</mask>
<path d="M91.5972 89.8523C88.2026 96.4904 80.0693 99.1202 73.4311 95.7258L72.1572 95.0742C69.2012 93.5625 67.1375 90.9987 66.1833 88.0735C64.886 88.3169 63.5 88.1368 62.2461 87.4648C59.3256 85.8994 58.2266 82.2628 59.7918 79.3422C61.357 76.4216 64.9937 75.3229 67.9144 76.8879C70.8351 78.4531 71.9339 82.0897 70.3687 85.0105C70.2077 85.3108 70.0249 85.5918 69.8232 85.8527L69.8972 85.8923L71.8329 88.6315L72.9188 89.7808L75.1223 90.9616L75.1564 90.9622C75.3353 91.0709 75.5179 91.1772 75.7072 91.274C79.8867 93.4111 85.0079 91.7555 87.1453 87.5762C88.688 84.5595 88.2543 81.0525 86.3223 78.5308L88.823 73.8646C93.0963 77.8755 94.3992 84.373 91.5972 89.8523Z" fill="white"/>
<path d="M91.5972 89.8523L91.8643 89.9889L91.8643 89.9889L91.5972 89.8523ZM73.4311 95.7258L73.2945 95.9929L73.2946 95.993L73.4311 95.7258ZM72.1572 95.0742L72.2938 94.8071L72.2938 94.8071L72.1572 95.0742ZM66.1833 88.0735L66.4685 87.9805L66.3868 87.7301L66.128 87.7786L66.1833 88.0735ZM62.2461 87.4648L62.1044 87.7292L62.1044 87.7292L62.2461 87.4648ZM67.9144 76.8879L68.0561 76.6235L68.056 76.6235L67.9144 76.8879ZM69.8232 85.8527L69.5858 85.6692L69.369 85.9496L69.6814 86.1171L69.8232 85.8527ZM69.8972 85.8923L70.1422 85.7192L70.1013 85.6614L70.0389 85.6279L69.8972 85.8923ZM71.8329 88.6315L71.5879 88.8047L71.6002 88.8221L71.6148 88.8376L71.8329 88.6315ZM72.9188 89.7808L72.7008 89.9868L72.7342 90.0222L72.7771 90.0452L72.9188 89.7808ZM75.1223 90.9616L74.9806 91.2261L75.0448 91.2605L75.1177 91.2616L75.1223 90.9616ZM75.1564 90.9622L75.3122 90.7058L75.2426 90.6635L75.161 90.6622L75.1564 90.9622ZM75.7072 91.274L75.5706 91.5411L75.5707 91.5411L75.7072 91.274ZM87.1453 87.5762L87.4124 87.7128L87.4124 87.7128L87.1453 87.5762ZM86.3223 78.5308L86.0579 78.3891L85.9665 78.5596L86.0842 78.7132L86.3223 78.5308ZM88.823 73.8646L89.0283 73.6459L88.7432 73.3783L88.5585 73.7229L88.823 73.8646ZM91.5972 89.8523L91.3301 89.7157C88.0109 96.2063 80.0583 98.7776 73.5677 95.4587L73.4311 95.7258L73.2946 95.993C80.0802 99.4627 88.3943 96.7745 91.8643 89.9889L91.5972 89.8523ZM73.4311 95.7258L73.5678 95.4588L72.2938 94.8071L72.1572 95.0742L72.0206 95.3412L73.2945 95.9929L73.4311 95.7258ZM72.1572 95.0742L72.2938 94.8071C69.4114 93.333 67.3992 90.8335 66.4685 87.9805L66.1833 88.0735L65.8981 88.1665C66.8758 91.1639 68.991 93.7919 72.0206 95.3413L72.1572 95.0742ZM66.1833 88.0735L66.128 87.7786C64.8954 88.0099 63.5792 87.8388 62.3878 87.2004L62.2461 87.4648L62.1044 87.7292C63.4209 88.4347 64.8767 88.6239 66.2386 88.3684L66.1833 88.0735ZM62.2461 87.4648L62.3878 87.2004C59.6133 85.7133 58.5693 82.2585 60.0562 79.4839L59.7918 79.3422L59.5274 79.2005C57.8839 82.2672 59.0379 86.0856 62.1044 87.7292L62.2461 87.4648ZM59.7918 79.3422L60.0562 79.4839C61.5431 76.7094 64.998 75.6656 67.7727 77.1523L67.9144 76.8879L68.056 76.6235C64.9894 74.9802 61.1708 76.1338 59.5274 79.2005L59.7918 79.3422ZM67.9144 76.8879L67.7726 77.1523C70.5473 78.6393 71.5912 82.0941 70.1042 84.8688L70.3687 85.0105L70.6331 85.1522C72.2766 82.0854 71.1228 78.267 68.0561 76.6235L67.9144 76.8879ZM70.3687 85.0105L70.1042 84.8688C69.9512 85.1544 69.7774 85.4214 69.5858 85.6692L69.8232 85.8527L70.0605 86.0362C70.2723 85.7622 70.4642 85.4673 70.6331 85.1522L70.3687 85.0105ZM69.8232 85.8527L69.6814 86.1171L69.7555 86.1568L69.8972 85.8923L70.0389 85.6279L69.9649 85.5883L69.8232 85.8527ZM69.8972 85.8923L69.6522 86.0655L71.5879 88.8047L71.8329 88.6315L72.0779 88.4584L70.1422 85.7192L69.8972 85.8923ZM71.8329 88.6315L71.6148 88.8376L72.7008 89.9868L72.9188 89.7808L73.1369 89.5747L72.0509 88.4255L71.8329 88.6315ZM72.9188 89.7808L72.7771 90.0452L74.9806 91.2261L75.1223 90.9616L75.264 90.6972L73.0605 89.5163L72.9188 89.7808ZM75.1223 90.9616L75.1177 91.2616L75.1517 91.2621L75.1564 90.9622L75.161 90.6622L75.127 90.6617L75.1223 90.9616ZM75.1564 90.9622L75.0006 91.2185C75.1824 91.3291 75.372 91.4395 75.5706 91.5411L75.7072 91.274L75.8438 91.0069C75.6637 90.9148 75.4881 90.8127 75.3122 90.7058L75.1564 90.9622ZM75.7072 91.274L75.5707 91.5411C79.8976 93.7536 85.1996 92.0396 87.4124 87.7128L87.1453 87.5762L86.8782 87.4396C84.8163 91.4714 79.8758 93.0685 75.8438 91.0069L75.7072 91.274ZM87.1453 87.5762L87.4124 87.7128C89.0098 84.5892 88.5602 80.9584 86.5605 78.3483L86.3223 78.5308L86.0842 78.7132C87.9485 81.1465 88.3662 84.5299 86.8782 87.4396L87.1453 87.5762ZM86.3223 78.5308L86.5868 78.6725L89.0874 74.0063L88.823 73.8646L88.5585 73.7229L86.0579 78.3891L86.3223 78.5308ZM88.823 73.8646L88.6177 74.0834C92.7961 78.0053 94.0696 84.3586 91.3301 89.7157L91.5972 89.8523L91.8643 89.9889C94.7287 84.3874 93.3964 77.7457 89.0283 73.6459L88.823 73.8646Z" fill="#B3B3B3" mask="url(#path-11-inside-6_181_114)"/>
</g>
<defs>
<clipPath id="clip0_181_114">
<rect width="153" height="153" fill="white"/>
</clipPath>
</defs>
</svg>
